/* XPM */
static const char * appIcon_xpm[] = {
"32 32 466 2",
"  	c None",
". 	c #7272C1",
"+ 	c #8686CE",
"@ 	c #8686D0",
"# 	c #8282D0",
"$ 	c #7D7DD0",
"% 	c #7979D0",
"& 	c #7575D0",
"* 	c #7171D0",
"= 	c #6D6DD0",
"- 	c #6666CD",
"; 	c #5151C1",
"> 	c #7272C2",
", 	c #C1C1F2",
"' 	c #D7D7FF",
") 	c #C9C9FF",
"! 	c #C2C2FF",
"~ 	c #BBBBFF",
"{ 	c #B4B4FF",
"] 	c #AEAEFF",
"^ 	c #A7A7FF",
"/ 	c #A0A0FF",
"( 	c #9A9AFF",
"_ 	c #8484F2",
": 	c #4949C2",
"< 	c #8989D4",
"[ 	c #DADAFF",
"} 	c #C0C0FF",
"| 	c #9393FF",
"1 	c #8C8CFF",
"2 	c #8686FF",
"3 	c #5454D4",
"4 	c #8686D8",
"5 	c #D4D4FF",
"6 	c #D2D2FF",
"7 	c #7F7FFF",
"8 	c #7878FF",
"9 	c #4F4FD7",
"0 	c #7D7DD8",
"a 	c #CCCCFF",
"b 	c #CACAFF",
"c 	c #A8A8FF",
"d 	c #7070FF",
"e 	c #6B6BFF",
"f 	c #4545D7",
"g 	c #7373D8",
"h 	c #C3C3FF",
"i 	c #9C9CFF",
"j 	c #8D8DFF",
"k 	c #7777FF",
"l 	c #6262FF",
"m 	c #5252FF",
"n 	c #4B4BFF",
"o 	c #4848FF",
"p 	c #3232D7",
"q 	c #6A6AD8",
"r 	c #B9B9FF",
"s 	c #9090FF",
"t 	c #6F6FFF",
"u 	c #5555FF",
"v 	c #4646FF",
"w 	c #4B4BF5",
"x 	c #8282B4",
"y 	c #93938E",
"z 	c #B1B173",
"A 	c #BFBF68",
"B 	c #BFBF65",
"C 	c #BFBF62",
"D 	c #BFBF5E",
"E 	c #BFBF5B",
"F 	c #BFBF57",
"G 	c #BFBF54",
"H 	c #5858D8",
"I 	c #B2B2FF",
"J 	c #B1B1FF",
"K 	c #8484FF",
"L 	c #7272FF",
"M 	c #6767FF",
"N 	c #4F4FFF",
"O 	c #4747FF",
"P 	c #4242FF",
"Q 	c #4141FA",
"R 	c #ABAB8A",
"S 	c #E4E4AA",
"T 	c #F5F5C3",
"U 	c #F6F6BE",
"V 	c #F6F6B7",
"W 	c #F6F6B1",
"X 	c #F6F6AB",
"Y 	c #F6F6A5",
"Z 	c #F6F69E",
"` 	c #F6F698",
" .	c #F1F18C",
"..	c #D0D05F",
"+.	c #7C498C",
"@.	c #4242D8",
"#.	c #A4A4FF",
"$.	c #5959FF",
"%.	c #3D3DFF",
"&.	c #3838FF",
"*.	c #6666CA",
"=.	c #DCDC98",
"-.	c #FFFFDD",
";.	c #FFFFD7",
">.	c #FFFFC0",
",.	c #FFFFB8",
"'.	c #FFFFB2",
").	c #FFFFAB",
"!.	c #FFFFA4",
"~.	c #FFFF9D",
"{.	c #FFFF97",
"].	c #FFFF90",
"^.	c #FBFB85",
"/.	c #C2C244",
"(.	c #C37676",
"_.	c #DA9B9B",
":.	c #DF9F9F",
"<.	c #DF9A9A",
"[.	c #DF9494",
"}.	c #DF8F8F",
"|.	c #DF8A8A",
"1.	c #B47094",
"2.	c #3B3BD8",
"3.	c #9292FF",
"4.	c #5656FF",
"5.	c #3333FF",
"6.	c #2E2EFF",
"7.	c #7070B6",
"8.	c #E7E79F",
"9.	c #FFFFDE",
"0.	c #FFFFCF",
"a.	c #FFFFB5",
"b.	c #FFFF9E",
"c.	c #FFFF8A",
"d.	c #FFFF83",
"e.	c #FFFF7C",
"f.	c #C8C843",
"g.	c #C06D6D",
"h.	c #F1BEBE",
"i.	c #FFDBDB",
"j.	c #FFCBCB",
"k.	c #FFC0C0",
"l.	c #FFBABA",
"m.	c #FFB3B3",
"n.	c #FFACAC",
"o.	c #CE89AC",
"p.	c #3333D7",
"q.	c #8787FF",
"r.	c #4D4DFF",
"s.	c #2929FF",
"t.	c #2424FF",
"u.	c #6B6BB3",
"v.	c #E7E795",
"w.	c #FFFFC6",
"x.	c #FFFFA8",
"y.	c #FFFF76",
"z.	c #FFFF6F",
"A.	c #C8C83C",
"B.	c #C77474",
"C.	c #FFD3D3",
"D.	c #FFDEDE",
"E.	c #FFC4C4",
"F.	c #FFA6A6",
"G.	c #FF9F9F",
"H.	c #F3929A",
"I.	c #2F29C3",
"J.	c #4C4CFB",
"K.	c #6868FF",
"L.	c #3939FF",
"M.	c #1F1FFF",
"N.	c #1A1AFF",
"O.	c #6367AF",
"P.	c #B8D288",
"Q.	c #CCE6C0",
"R.	c #CCE6B1",
"S.	c #CCE696",
"T.	c #CCE68E",
"U.	c #CCE688",
"V.	c #D5EA82",
"W.	c #E6F37C",
"X.	c #F2F66E",
"Y.	c #F5F55F",
"Z.	c #F5F558",
"`.	c #F7F756",
" +	c #C7C732",
".+	c #C86E6E",
"++	c #FFC9C9",
"@+	c #FFD7D7",
"#+	c #FFB8B8",
"$+	c #FF9898",
"%+	c #FF9292",
"&+	c #FF8B8B",
"*+	c #B16098",
"=+	c #2420C6",
"-+	c #2222DD",
";+	c #1F1FDF",
">+	c #1B1BDF",
",+	c #1818DF",
"'+	c #1414DF",
")+	c #1010DF",
"!+	c #0C0CDF",
"~+	c #566299",
"{+	c #68906A",
"]+	c #A78650",
"^+	c #DD7F35",
"/+	c #DB7F36",
"(+	c #8A8555",
"_+	c #71895D",
":+	c #9E8A4E",
"<+	c #9B9351",
"[+	c #95A354",
"}+	c #BCD04B",
"|+	c #BFBF22",
"1+	c #C86666",
"2+	c #FFBFBF",
"3+	c #FFD0D0",
"4+	c #FFADAD",
"5+	c #FF8484",
"6+	c #FF7E7E",
"7+	c #FF7373",
"8+	c #E75F70",
"9+	c #B0457F",
"0+	c #9A3776",
"a+	c #5F1D7C",
"b+	c #878766",
"c+	c #E6E674",
"d+	c #9CBB93",
"e+	c #FC802C",
"f+	c #FF7F2A",
"g+	c #B48D4A",
"h+	c #CEE05B",
"i+	c #D8E44F",
"j+	c #86A55A",
"k+	c #F57F2D",
"l+	c #C9863D",
"m+	c #89A23F",
"n+	c #C85F5F",
"o+	c #FFB4B4",
"p+	c #FFA2A2",
"q+	c #FF7575",
"r+	c #FF5E5E",
"s+	c #FF5050",
"t+	c #FF4A4A",
"u+	c #FF4545",
"v+	c #E73535",
"w+	c #DCDC55",
"x+	c #9FBC8D",
"y+	c #9BA054",
"z+	c #EFEF45",
"A+	c #EFEF40",
"B+	c #E4EA3E",
"C+	c #A78B47",
"D+	c #9E8845",
"E+	c #C85656",
"F+	c #FFAAAA",
"G+	c #FFC2C2",
"H+	c #FF9797",
"I+	c #FF7777",
"J+	c #FF6E6E",
"K+	c #FF5454",
"L+	c #FF4040",
"M+	c #FF3B3B",
"N+	c #E72C2C",
"O+	c #DADA48",
"P+	c #9CA874",
"Q+	c #FE7E2A",
"R+	c #98B254",
"S+	c #EFEF3B",
"T+	c #EFEF36",
"U+	c #EFEF31",
"V+	c #9E914A",
"W+	c #D27F38",
"X+	c #C84040",
"Y+	c #FF9A9A",
"Z+	c #FFBBBB",
"`+	c #FF7171",
" @	c #9E7463",
".@	c #AA7052",
"+@	c #AA6E4F",
"@@	c #8F6858",
"#@	c #FF3C3C",
"$@	c #FF3737",
"%@	c #FF3232",
"&@	c #85614D",
"*@	c #8E6C48",
"=@	c #848054",
"-@	c #478069",
";@	c #D9D93E",
">@	c #9D955F",
",@	c #D38239",
"'@	c #BDD445",
")@	c #EFEF2C",
"!@	c #E3E92B",
"~@	c #AA8B45",
"{@	c #C0823C",
"]@	c #C83636",
"^@	c #FFABAB",
"/@	c #FF7676",
"(@	c #A1764F",
"_@	c #9F674E",
":@	c #FF2D2D",
"<@	c #DC3333",
"[@	c #BF7A3E",
"}@	c #4D7F66",
"|@	c #AEC13F",
"1@	c #C8843F",
"2@	c #9F914A",
"3@	c #ECEE2D",
"4@	c #EFEF27",
"5@	c #EFEF22",
"6@	c #A2BF3F",
"7@	c #EB7E30",
"8@	c #828C47",
"9@	c #C83030",
"0@	c #FF6161",
"a@	c #DC4949",
"b@	c #C17B3F",
"c@	c #A1584B",
"d@	c #FF2828",
"e@	c #FF2323",
"f@	c #A94940",
"g@	c #F37F2E",
"h@	c #DA8037",
"i@	c #7B9946",
"j@	c #98A048",
"k@	c #EAEA20",
"l@	c #EAEA1C",
"m@	c #C5D529",
"n@	c #A39043",
"o@	c #F97F2C",
"p@	c #908C45",
"q@	c #86A32A",
"r@	c #C52929",
"s@	c #FF6666",
"t@	c #FF5858",
"u@	c #A9574E",
"v@	c #D97E36",
"w@	c #C53B38",
"x@	c #FF1E1E",
"y@	c #FF1919",
"z@	c #9E5540",
"A@	c #9D804C",
"B@	c #768255",
"C@	c #FD7F2B",
"D@	c #508A5A",
"E@	c #769642",
"F@	c #7E8F45",
"G@	c #AF8440",
"H@	c #CD7F39",
"I@	c #8D8748",
"J@	c #769142",
"K@	c #BF2020",
"L@	c #E63131",
"M@	c #FF5555",
"N@	c #FF3A3A",
"O@	c #9E5F4A",
"P@	c #A87446",
"Q@	c #F61D1D",
"R@	c #FF1414",
"S@	c #FF0F0F",
"T@	c #9D6041",
"U@	c #818054",
"V@	c #93804E",
"W@	c #DD8036",
"X@	c #838055",
"Y@	c #90804F",
"Z@	c #E17F34",
"`@	c #EF7F2F",
" #	c #828054",
".#	c #538064",
"+#	c #BF1919",
"@#	c #CB1B1B",
"##	c #D01A1A",
"$#	c #926344",
"%#	c #936443",
"&#	c #D00A0A",
"*#	c #D00707",
"=#	c #CC0404",
"-#	c #996F44",
";#	c #66805E",
">#	c #D78038",
",#	c #8E7F50",
"'#	c #BB8040",
")#	c #70815A",
"!#	c #947C4C",
"~#	c #6E7757",
"{#	c #CB7E3A",
"]#	c #568064",
"^#	c #707F59",
"/#	c #65805D",
"(#	c #588063",
"_#	c #D28039",
":#	c #4B7F66",
"<#	c #4D8066",
"[#	c #CB7F3C",
"}#	c #7B7F57",
"|#	c #F8802D",
"1#	c #4B8166",
"2#	c #827F54",
"3#	c #508064",
"4#	c #4A8067",
"5#	c #7D8056",
"6#	c #A78047",
"7#	c #95804E",
"8#	c #588163",
"9#	c #9E804B",
"0#	c #BA8042",
"a#	c #538065",
"b#	c #848055",
"c#	c #768059",
"d#	c #71805A",
"e#	c #A1804A",
"f#	c #618061",
"g#	c #758058",
"h#	c #F17E2F",
"i#	c #99814D",
"j#	c #E68033",
"k#	c #577F63",
"l#	c #767F59",
"m#	c #C97F3C",
"n#	c #318070",
"o#	c #E57E33",
"p#	c #868052",
"q#	c #71805B",
"r#	c #647F5D",
"s#	c #96804E",
"t#	c #5E7F60",
"u#	c #AC8046",
"v#	c #BD8041",
"w#	c #338070",
"x#	c #F77F2D",
"y#	c #63805F",
"z#	c #62805F",
"A#	c #B57F43",
"B#	c #BA7F41",
"C#	c #D97E37",
"D#	c #69805C",
"E#	c #8F7F4F",
"F#	c #BC8041",
"G#	c #8E8050",
"H#	c #69805D",
"I#	c #B88042",
"J#	c #A77F47",
"K#	c #457F69",
"L#	c #D17F3A",
"M#	c #508166",
"N#	c #547F62",
"O#	c #528166",
"P#	c #788057",
"Q#	c #FA802C",
"R#	c #7A8057",
"S#	c #7C7F55",
"T#	c #BB8142",
"U#	c #FB7F2B",
"V#	c #CA803C",
"W#	c #7E8056",
"X#	c #F2802F",
"Y#	c #588064",
"Z#	c #5F805F",
"`#	c #61805F",
" $	c #657F5E",
".$	c #558063",
"+$	c #96804D",
"@$	c #C08040",
"#$	c #CD803B",
"$$	c #858053",
"                    . + @ # $ % & * = - ;                       ",
"                  > , ' ) ! ~ { ] ^ / ( _ :                     ",
"                  < [ [ } { ] ^ / ( | 1 2 3                     ",
"                  4 5 6 { ^ / ( | 1 2 7 8 9                     ",
"                  0 a b c ( | 1 2 7 8 d e f                     ",
"                  g h ! i j 2 7 k l m n o p                     ",
"                  q ~ r s 7 8 t u n v w x y z A B C D E F G     ",
"                  H I J K L M N O P Q R S T U V W X Y Z `  ...  ",
"                +.@.( #.L $.o P %.&.*.=.-.;.>.,.'.).!.~.{.].^./.",
"  (._.:.<.[.}.|.1.2.s 3.4.P %.&.5.6.7.8.9.0.a.).!.b.{.].c.d.e.f.",
"g.h.i.j.k.l.m.n.o.p.q.1 r.&.5.6.s.t.u.v.;.w.x.b.{.].c.d.e.y.z.A.",
"B.C.D.E.m.n.F.G.H.I.J.K.L.6.s.t.M.N.O.P.Q.R.S.T.U.V.W.X.Y.Z.`. +",
".+++@+#+F.G.$+%+&+*+=+-+;+>+,+'+)+!+~+{+]+^+^+^+/+(+_+:+<+[+}+|+",
"1+2+3+4+$+%+&+5+6+7+8+9+0+a+        b+c+d+e+f+f+g+h+i+j+k+f+l+m+",
"n+o+++p+&+5+6+q+r+s+t+u+v+            w+x+f+f+f+y+z+A+B+C+f+f+D+",
"E+F+G+H+6+I+J+K+t+u+L+M+N+            O+P+f+f+Q+R+S+T+U+V+f+f+W+",
"X+Y+Z+&+`+ @.@+@@@#@$@%@&@*@=@-@      ;@>@f+f+,@'@U+)@!@~@f+f+{@",
"]@6+^@/@K+(@f+f+_@%@:@<@[@f+Q+}@      |@1@f+f+2@3@4@5@6@7@f+f+8@",
"9@/@G.0@a@b@f+Q+c@d@e@f@g@f+h@        i@e+f+f+j@k@l@m@n@f+o@p@q@",
"r@s@Y+t@u@g@f+v@w@x@y@z@f+f+A@        B@f+f+C@D@E@F@G@H@I@J@    ",
"K@L@M@N@O@f+f+P@Q@R@S@T@f+f+U@        V@f+f+W@X@Y@Z@`@ #.#      ",
"  +#@###$#f+f+%#&#*#=#-#f+f+;#        >#f+f+,#      '#f+o@)#    ",
"        !#f+f+~#      {#f+o@        ]#f+f+f+^#      /#f+f+o@(#  ",
"        _#f+f+:#    <#e+f+[#      (#}#f+f+|#        1#f+f+f+2#  ",
"      3#Q+k+f+4#    5#f+f+6#    7#8#9#f+f+0#        a#f+f+f+b#  ",
"      c#f+d#o@e#f#g#h#i#f+j#k#l#m#n#o#f+f+p#        q#f+f+f+r#  ",
"      s#f+t#u#f+f+f+v#w#x#f+f+e+y#z#f+f+f+;#        A#f+f+B#    ",
"      C#f+D#  E#F#G#    H#I#J#y#  s#f+f+f+K#      X@f+f+L#M#    ",
"    N#f+f+O#                  <#P#Q#f+f+f+A@R#S#T#U#V#W#        ",
"    R#f+X#                    Y#Z#Z#Z#Z#Z#Z#`# $.$              ",
"    +$f+@$                                                      ",
"    #$f+$$                                                      "};
